<?xml version="1.0" encoding="UTF-8" standalone="no"?>
<svg
   version="1.1"
   id="Layer_1"
   x="0px"
   y="0px"
   width="100%"
   viewBox="0 0 1024 1024"
   enable-background="new 0 0 1024 1024"
   xml:space="preserve"
   xmlns="http://www.w3.org/2000/svg"
   xmlns:svg="http://www.w3.org/2000/svg"><defs
   id="defs103" />

<path
   fill="#13243A"
   opacity="1.000000"
   stroke="none"
   d=" M775.993286,628.000000   C775.729309,642.984741 776.408630,657.561768 775.003479,671.934998   C772.077454,701.863831 758.931763,727.499146 738.231689,748.952454   C711.743652,776.404419 678.923767,790.645569 640.818420,790.830078   C556.328003,791.239197 471.834076,791.022766 387.341797,790.909119   C349.955872,790.858826 317.291809,778.148438 290.821289,751.719421   C265.290405,726.228821 251.005875,695.334534 250.990906,658.682068   C250.950836,560.524414 250.903076,462.366577 251.051788,364.209106   C251.086700,341.166412 258.214935,319.998718 269.824371,300.231903   C283.644318,276.701324 302.872284,259.109436 327.506744,247.398376   C346.191833,238.515610 366.029633,234.255402 386.562225,234.201202   C470.054138,233.980759 553.546936,234.112747 637.039429,234.109421   C674.750305,234.107910 707.603210,246.568420 734.825317,272.835449   C750.541443,288.000214 761.612244,306.205750 768.899963,326.858612   C774.024963,341.382446 775.924011,356.322662 775.943481,371.522644   C776.053040,456.848328 775.994080,542.174194 775.993286,628.000000  M340.662628,560.001465   C341.120361,559.681824 341.578094,559.362183 342.751007,558.941284   C349.521240,554.643921 356.291473,550.346558 363.010925,546.013245   C363.010925,546.013245 363.035858,546.070984 363.765381,545.982483   C371.504822,542.716797 371.467712,542.741272 376.336975,550.116821   C380.786499,556.856506 385.328094,563.535400 390.011841,570.154480   C390.011841,570.154480 389.925354,569.971680 389.915253,570.584534   C390.271027,571.069397 390.626801,571.554199 391.007263,572.002136   C391.007263,572.002136 390.967987,572.021912 391.167145,572.668335   C392.905334,574.942383 394.643494,577.216492 396.666687,579.132019   C396.666687,579.132019 396.394501,579.487671 396.713806,580.071655   C397.432526,580.892822 398.151245,581.713928 398.989136,583.000183   C399.310089,583.337585 399.631073,583.674927 400.126892,584.531738   C400.421631,584.730042 400.716370,584.928406 400.930359,585.028015   C400.930359,585.028015 400.831726,585.108887 401.067627,585.749878   C405.339386,590.888245 409.611145,596.026672 413.888885,601.096741   C413.888885,601.096741 413.820312,601.095154 414.101654,601.717224   C417.381317,605.507324 420.660980,609.297424 423.979218,613.021545   C423.979218,613.021545 423.913177,612.983032 424.107788,613.505005   C424.410126,613.697083 424.712433,613.889221 424.907501,613.987549   C424.907501,613.987549 424.813599,614.094666 425.042419,614.715149   C426.352295,616.159241 427.662140,617.603271 429.203552,619.677490   C450.564331,645.224060 471.919800,670.775085 493.287781,696.315674   C507.606567,713.430542 521.778381,730.672241 536.328491,747.588318   C546.278870,759.156677 558.254700,759.196472 568.534729,748.302368   C569.791321,746.970642 571.012390,745.602722 572.201904,744.210571   C612.875610,696.611511 653.540466,649.004883 694.213745,601.405457   C707.574463,585.769653 719.577515,569.198608 728.111084,550.396667   C733.538269,538.439270 738.832092,526.361938 740.659302,512.575989   C742.128418,501.293823 744.077576,490.046387 744.897522,478.717255   C745.442261,471.190887 745.002502,463.453339 743.883484,455.977997   C742.032532,443.612152 739.277832,431.381592 736.816589,418.280884   C736.579834,417.796753 736.343079,417.312622 736.092346,416.173096   C734.395325,411.807190 732.698303,407.441284 730.918274,402.345490   C724.973206,391.545319 719.028076,380.745148 712.923218,369.408936   C712.614380,369.242676 712.305542,369.076416 712.204834,369.034393   C712.204834,369.034393 712.329163,368.826355 712.121399,368.255951   C711.536682,367.700867 710.951904,367.145782 710.594971,366.569733   C710.594971,366.569733 710.574097,366.341919 710.272644,365.747375   C701.365784,355.639954 692.458862,345.532501 683.078918,335.492126   C683.078918,335.492126 683.145874,335.965240 683.166016,335.309174   C682.782104,335.166199 682.398254,335.023254 682.351196,334.986206   C682.351196,334.986206 682.457214,334.649384 682.092163,334.081268   C676.427917,329.667511 670.763611,325.253723 665.096558,320.905304   C665.096558,320.905304 665.161438,320.896606 664.803345,320.322723   C658.549316,316.530212 652.295288,312.737701 646.007324,308.995117   C646.007324,308.995117 646.033630,308.944244 645.570923,308.437531   C634.047668,303.793579 622.524475,299.149628 610.992859,294.826294   C610.992859,294.826294 611.313538,294.834564 610.936218,294.304382   C610.315796,294.174500 609.695374,294.044617 608.622131,293.569641   C608.071106,293.460388 607.520020,293.351105 606.265808,292.935822   C598.164185,291.291870 590.062561,289.647888 581.481873,287.793060   C580.628113,287.768494 579.774292,287.743927 578.201538,287.576416   C576.744263,287.419128 575.286987,287.261810 573.247375,286.889587   C571.790222,286.858917 570.333008,286.828247 568.061279,286.716064   C564.406189,286.557190 560.751160,286.398315 556.377075,286.085022   C555.892029,286.134583 555.406921,286.184174 554.026672,286.212708   C549.334778,286.472046 544.642944,286.731415 539.501465,286.833435   C538.727539,286.932129 537.953613,287.030853 536.300232,287.209198   C534.843018,287.410370 533.385864,287.611542 531.451843,287.700531   C530.975830,287.802216 530.499817,287.903900 529.538086,288.030945   C529.538086,288.030945 529.056824,288.101135 528.451111,288.016388   C527.875244,288.185913 527.299377,288.355408 526.185669,288.614838   C525.829712,288.688812 525.473755,288.762817 524.709290,288.718628   C524.164062,288.834167 523.618835,288.949738 522.307678,289.322449   C521.857056,289.516479 521.421448,289.827942 520.953674,289.887543   C504.918915,291.930389 489.930176,297.217682 474.896484,304.694733   C471.455505,306.645020 468.014526,308.595306 464.747345,310.588837   C464.747345,310.588837 464.790558,310.415009 464.115479,310.614746   C462.595123,311.634369 461.074799,312.653992 459.655731,313.624115   C459.655731,313.624115 459.606140,313.522919 458.957581,313.774872   C452.533081,318.397186 446.108582,323.019531 439.714478,327.925720   C439.714478,327.925720 439.998352,327.895386 439.365143,327.915314   C439.196869,328.263336 439.028595,328.611359 438.979034,328.985199   C438.979034,328.985199 439.004791,328.866486 438.350616,328.694061   C437.849060,329.117371 437.347504,329.540680 436.931335,329.950531   C436.931335,329.950531 436.917755,329.865173 436.296814,330.124939   C433.870209,332.418152 431.443573,334.711365 428.993347,336.993927   C428.993347,336.993927 429.003998,337.017639 428.419617,337.298737   C426.927795,338.844482 425.436005,340.390259 423.987915,341.989014   C423.987915,341.989014 423.935394,341.944244 423.382629,342.213257   C422.580872,343.130829 421.779114,344.048401 420.513550,345.167236   C420.330719,345.442749 420.147888,345.718231 419.441803,346.223602   C418.970520,346.804535 418.499268,347.385468 417.964081,347.960876   C417.964081,347.960876 417.972137,348.024506 417.388672,348.330963   C414.221863,352.190948 411.055023,356.050903 407.460419,360.168335   C407.200623,360.400391 407.045258,360.688721 406.453583,361.415558   C403.650909,365.614319 400.848267,369.813049 397.989532,374.007080   C397.989532,374.007080 398.016449,374.056580 397.542816,374.417450   C397.328674,374.960815 397.114563,375.504150 396.997589,375.958313   C396.997589,375.958313 396.908325,375.861237 396.371216,376.267181   C394.900421,378.827026 393.429657,381.386902 391.971954,383.969391   C391.971954,383.969391 391.947815,383.965881 391.445587,384.413391   C388.733276,389.729492 385.853638,394.967834 383.340607,400.376495   C376.306091,415.516449 372.043701,431.524323 368.399353,447.860748   C368.399353,447.860748 367.954620,447.967834 367.401489,447.588318   C361.238678,443.962158 355.129303,440.241089 348.901154,436.730865   C338.052643,430.616486 327.437683,423.961151 316.146271,418.797760   C306.468262,414.372162 296.632446,416.539856 288.870026,423.876495   C280.659760,431.636292 277.323029,441.384949 279.754639,452.803802   C282.742706,466.836029 288.779724,479.558685 296.342194,491.590668   C298.139404,494.450012 297.870544,496.463928 296.320679,499.249512   C292.848022,505.490875 289.519104,511.849121 286.680786,518.397827   C282.531097,527.972168 278.692230,537.647339 278.900879,548.458801   C279.273590,567.772644 299.238739,581.279114 316.892059,573.751831   C321.563568,571.759949 325.853546,568.873352 330.868835,566.245300   C331.315918,565.904968 331.762970,565.564697 332.854462,565.068237   C334.308167,564.129639 335.761841,563.191040 337.775513,562.125305   C338.233948,561.796997 338.692352,561.468689 339.603821,560.940247   C339.839874,560.694336 339.993317,560.404663 340.662628,560.001465  z"
   id="path2" />
<path
   fill="#2DBDA2"
   opacity="1.000000"
   stroke="none"
   d=" M736.106323,416.828491   C736.343079,417.312622 736.579834,417.796753 736.767578,419.002411   C738.082642,427.052673 739.687134,434.346375 740.761108,441.717377   C743.059692,457.494446 745.732483,473.223816 742.611511,489.302704   C741.101501,497.082733 740.879578,505.112762 740.074463,513.029602   C738.832092,526.361938 733.538269,538.439270 728.111084,550.396667   C719.577515,569.198608 707.574463,585.769653 694.213745,601.405457   C653.540466,649.004883 612.875610,696.611511 572.201904,744.210571   C571.012390,745.602722 569.791321,746.970642 568.534729,748.302368   C558.254700,759.196472 546.278870,759.156677 536.328491,747.588318   C521.778381,730.672241 507.606567,713.430542 493.287781,696.315674   C471.919800,670.775085 450.564331,645.224060 429.018280,619.019165   C427.493225,616.938782 426.153412,615.516724 424.813599,614.094666   C424.813599,614.094666 424.907501,613.987549 424.778076,613.851929   C424.403473,613.471863 424.158325,613.227417 423.913177,612.983032   C423.913177,612.983032 423.979218,613.021545 423.951660,612.659729   C423.646729,605.776306 418.462738,603.679932 413.820312,601.095154   C413.820312,601.095154 413.888885,601.096741 413.841736,600.772705   C412.611328,592.683960 408.361877,587.510254 400.831726,585.108887   C400.831726,585.108887 400.930359,585.028015 400.799255,584.887207   C400.429474,584.501648 400.190765,584.257019 399.952057,584.012329   C399.631073,583.674927 399.310089,583.337585 398.837036,582.434204   C397.921478,581.074646 397.157990,580.281189 396.394501,579.487671   C396.394501,579.487671 396.666687,579.132019 396.580658,578.890747   C396.893402,574.571472 395.434845,572.042419 390.967987,572.021912   C390.967987,572.021912 391.007263,572.002136 390.868378,571.755737   C390.461456,570.996826 390.193420,570.484253 389.925354,569.971680   C389.925354,569.971680 390.011841,570.154480 389.903900,569.824463   C389.464050,565.821838 391.166687,561.301697 385.621613,559.789368   C385.166229,559.665161 385.127777,558.300659 384.737701,557.600403   C382.710358,553.960815 380.725403,550.291748 378.532196,546.752930   C377.419189,544.957153 375.898712,543.413879 374.135834,541.227295   C381.083405,541.854187 386.855499,542.375061 392.917664,542.922058   C390.449677,536.990173 385.115784,538.538269 380.871216,537.693176   C380.879242,537.146362 380.887299,536.599548 380.895325,536.052795   C385.435303,534.848877 389.975250,533.644897 395.359161,532.217224   C394.496063,534.566711 394.168488,535.458496 393.554230,537.130737   C396.602203,536.269043 398.807098,535.645691 401.245544,535.161743   C401.967743,535.541016 402.456390,535.780823 403.185608,536.162476   C403.923828,536.555420 404.421387,536.806396 405.116882,537.337402   C407.951416,538.684753 410.588043,539.752136 413.190521,540.901245   C413.156372,540.982971 412.992889,540.914795 413.186768,541.079224   C413.633087,541.472656 413.885498,541.701782 414.082916,541.702637   C414.027893,541.474365 414.484375,541.364197 414.548950,541.431763   C414.748535,541.627930 414.908600,541.706665 415.373962,541.794922   C416.132446,542.150146 416.610748,542.446045 417.290924,543.012268   C418.699127,543.817078 419.905396,544.351624 421.090454,544.856689   C421.069183,544.827209 421.128174,544.784790 421.287384,545.083618   C422.834106,546.749329 424.339203,548.017822 425.582642,549.505127   C427.651489,551.979675 429.374084,551.570862 431.303802,549.136658   C431.721802,549.090942 431.888733,549.070190 432.118408,549.118042   C432.181122,549.186584 432.362244,549.145081 432.540955,549.360107   C433.183502,549.872070 433.647400,550.169006 433.973206,550.737915   C433.420135,551.994812 433.005127,552.979675 432.348389,554.538208   C435.905640,554.375366 438.909210,554.237915 442.076813,554.397705   C446.659576,559.774292 452.289276,561.002258 458.892273,559.808838   C459.441162,559.782166 459.726410,559.896057 460.185120,560.344238   C466.059448,565.177124 472.596771,566.479248 479.728912,565.654419   C479.773560,565.599976 479.882629,565.689148 480.013367,566.045349   C481.468140,570.052246 482.792175,573.703003 484.043427,577.681396   C481.980164,581.648438 479.989746,585.287842 477.901123,589.023926   C477.802948,589.120544 477.752899,589.391479 477.506622,589.654358   C476.556244,591.944641 475.852142,593.971985 475.077667,596.335571   C475.042786,597.126282 475.078278,597.580933 475.090149,598.391968   C476.855347,600.772949 478.391052,604.155212 480.484467,604.545410   C485.157349,605.416504 490.108521,604.794556 495.315735,604.784912   C496.143768,604.627869 496.602386,604.466858 497.415100,604.297485   C505.574127,600.904053 513.379089,597.518860 521.449463,594.067871   C522.152405,593.684387 522.589905,593.366760 523.362000,592.960693   C528.967041,588.734314 534.237366,584.596313 539.467041,580.447021   C539.426270,580.435669 539.474304,580.505249 539.762573,580.332703   C541.903809,578.269653 543.610596,576.197083 545.659851,574.550903   C547.095215,573.397827 548.927734,572.335144 550.704590,572.080139   C558.996094,570.890198 567.406677,570.414062 575.632629,568.907227   C592.770813,565.767944 609.553650,561.314026 625.444336,553.015320   C630.972717,550.284729 636.596436,548.230530 641.235107,544.831848   C651.521057,537.295471 661.454285,529.252747 671.218140,521.044067   C674.086243,518.632812 675.122742,514.728760 673.188110,510.965332   C671.332336,507.355225 668.082336,505.941101 664.086609,506.003815   C660.924316,506.053436 657.738525,506.199127 654.607605,505.874115   C653.322754,505.740723 651.828613,504.707489 651.086914,503.630798   C650.770630,503.171692 651.909180,501.308258 652.776245,500.501892   C658.016235,495.628662 663.532166,491.043640 668.645752,486.045013   C676.309570,478.553406 676.462341,474.066345 667.781738,467.781158   C655.958130,459.220367 643.876038,450.794800 631.059875,443.876434   C609.811829,432.406433 586.831055,425.789764 562.784912,422.777557   C556.875000,422.037231 550.589844,422.839752 545.499573,417.240326   C533.710938,404.272491 518.987244,395.021454 503.170197,387.708466   C489.000031,381.156921 474.632416,375.013947 458.396149,375.916260   C453.987793,376.161224 449.998230,376.723846 447.825348,381.010468   C445.694824,385.213531 447.941040,388.771576 450.152496,392.127808   C452.338654,395.445770 454.775879,398.598267 457.113190,402.216248   C458.131714,410.800995 459.140045,418.992920 460.129761,427.155396   C460.111145,427.125977 460.178833,427.142303 459.880737,427.026367   C458.350952,426.193970 457.119202,425.477478 455.625061,424.608337   C455.162506,426.367706 454.794769,427.766388 454.509460,428.851562   C452.998016,428.990875 451.256256,428.651245 450.771057,429.280518   C448.352386,432.417358 446.264038,435.808929 444.064148,439.080872   C444.068909,439.050934 444.117279,439.087524 443.734192,439.020752   C441.244690,438.990051 438.393188,438.161316 437.166382,439.218353   C432.841675,442.944489 428.727356,441.868591 424.282043,439.985992   C423.258148,439.552368 421.995728,439.681976 420.843079,439.552368   C420.759552,439.838745 420.676056,440.125122 420.592529,440.411499   C422.259399,441.779236 423.926270,443.146973 425.472443,444.415619   C418.824890,448.205780 412.580780,451.707825 406.409302,455.333405   C405.161530,456.066345 404.188385,457.266754 403.075867,458.221100   C403.063019,458.190521 403.098175,458.251801 402.700806,458.251404   C400.370239,458.693298 398.394684,459.002441 396.511627,459.602142   C390.176971,461.619629 388.460388,460.877991 386.036682,454.819611   C380.555786,455.979431 375.066010,457.141144 369.536102,458.311340   C367.868011,464.121887 365.476959,463.870728 355.347473,456.123779   C360.593536,455.537689 363.318115,453.093262 362.007782,447.967834   C364.351562,447.967834 366.153076,447.967834 367.954620,447.967834   C367.954620,447.967834 368.399353,447.860748 368.902527,447.651184   C370.180481,445.828156 371.202179,444.285614 371.689545,442.589539   C374.672882,432.207886 377.189178,421.676392 380.595184,411.439056   C382.115295,406.870087 382.821228,400.896301 387.871704,400.405609   C389.094482,395.928253 390.102295,392.388977 391.015472,388.825439   C391.424133,387.230682 391.642883,385.587219 391.947815,383.965881   C391.947815,383.965881 391.971954,383.969391 392.290161,383.835083   C396.186981,382.264282 396.992554,379.306793 396.908325,375.861237   C396.908325,375.861237 396.997589,375.958313 397.098236,375.759674   C397.471405,375.059540 397.743927,374.558075 398.016449,374.056580   C398.016449,374.056580 397.989532,374.007080 398.327759,373.878326   C400.412201,372.326904 401.998322,370.613953 403.938965,369.543976   C407.608337,367.520844 408.510406,364.780548 406.994293,361.033325   C407.045258,360.688721 407.200623,360.400391 408.006897,360.000488   C410.639832,359.832642 412.726288,359.832642 414.658325,359.832642   C415.798279,355.770630 416.885193,351.897583 417.972137,348.024506   C417.972137,348.024506 417.964081,347.960876 418.224915,347.804871   C418.978821,347.097168 419.471954,346.545471 419.965057,345.993744   C420.147888,345.718231 420.330719,345.442749 421.046753,344.958344   C422.365112,343.814392 423.150269,342.879333 423.935394,341.944244   C423.935394,341.944244 423.987915,341.989014 424.313110,341.897827   C426.093506,340.210297 427.548767,338.613983 429.003998,337.017639   C429.003998,337.017639 428.993347,336.993927 429.369019,336.959808   C433.764099,336.226501 436.120209,333.837555 436.917755,329.865173   C436.917755,329.865173 436.931335,329.950531 437.155182,329.807861   C437.920959,329.398956 438.462860,329.132721 439.004791,328.866486   C439.004791,328.866486 438.979034,328.985199 439.101318,328.785095   C439.481812,328.355103 439.740082,328.125244 439.998352,327.895386   C439.998352,327.895386 439.714478,327.925720 440.037384,327.887634   C441.775696,328.217834 443.191101,328.586121 443.420563,328.645813   C448.168488,324.703735 452.253998,321.455719 456.152832,317.997345   C457.537445,316.769135 458.468201,315.029236 459.606140,313.522949   C459.606140,313.522919 459.655731,313.624115 459.973022,313.600952   C461.790405,312.523560 463.290497,311.469299 464.790588,310.415039   C464.790558,310.415009 464.747345,310.588837 465.071075,310.617554   C469.596130,309.430420 473.797455,308.214600 478.322571,306.890198   C481.415619,305.772858 485.143768,305.544739 486.741547,303.582245   C489.512146,300.179199 492.503815,302.700012 494.946045,301.867676   C497.707336,300.926544 499.660706,297.719421 502.095581,295.650940   C502.800690,295.051971 503.933014,294.880096 504.904083,294.682465   C510.550079,293.533356 516.184998,292.303284 521.869263,291.381622   C524.274292,290.991699 526.794739,291.370453 529.254456,291.241852   C531.032471,291.148926 532.811829,290.874176 534.564453,290.542480   C538.778625,289.745026 542.956665,288.275604 547.186218,288.126434   C562.664490,287.580414 578.058838,288.045166 593.180359,292.298004   C597.521606,293.519012 602.359070,292.976044 606.968994,293.241852   C607.520020,293.351105 608.071106,293.460388 609.120605,293.871338   C610.183899,294.393555 610.748718,294.614075 611.313538,294.834564   C611.313538,294.834564 610.992859,294.826294 611.263611,294.918304   C614.636780,296.791626 617.603333,298.892059 620.871826,300.283142   C626.477905,302.669159 632.247742,304.682617 637.999390,306.709015   C640.615234,307.630615 643.351807,308.209778 646.033630,308.944244   C646.033630,308.944244 646.007324,308.995117 646.179077,309.245728   C651.039490,315.906006 658.039978,318.501160 665.161438,320.896606   C665.161438,320.896606 665.096558,320.905304 665.155823,321.230713   C668.933899,328.591888 675.887634,331.367645 682.457214,334.649384   C682.457214,334.649384 682.351196,334.986206 682.378906,335.105957   C682.653076,335.472229 682.899475,335.718750 683.145874,335.965240   C683.145874,335.965240 683.078918,335.492126 683.346924,335.830170   C684.446960,337.757965 685.023132,339.563873 686.153320,340.901825   C692.775879,348.741730 699.470947,356.523071 706.299744,364.183105   C707.288147,365.291748 709.128174,365.641174 710.574097,366.341919   C710.574097,366.341919 710.594971,366.569733 710.651917,366.831787   C711.248962,367.671356 711.789062,368.248871 712.329102,368.826355   C712.329163,368.826355 712.204834,369.034393 712.284424,369.141785   C712.603699,369.481140 712.843323,369.713074 713.082947,369.945007   C719.028076,380.745148 724.973206,391.545319 730.895386,403.002991   C732.617126,408.049835 734.361755,412.439148 736.106323,416.828491  M400.555298,455.262543   C401.139740,454.898224 401.724152,454.533936 403.320312,453.538910   C399.554077,452.853485 396.967468,452.382751 394.380859,451.912018   C394.223053,452.488647 394.065216,453.065277 393.907410,453.641937   C395.923157,454.199097 397.938873,454.756287 400.555298,455.262543  z"
   id="path3" />
<path
   fill="#33BBA2"
   opacity="1.000000"
   stroke="none"
   d=" M367.678040,447.778076   C366.153076,447.967834 364.351562,447.967834 362.007782,447.967834   C363.318115,453.093262 360.593536,455.537689 355.347473,456.123779   C365.476959,463.870728 367.868011,464.121887 369.536102,458.311340   C375.066010,457.141144 380.555786,455.979431 386.036682,454.819611   C388.460388,460.877991 390.176971,461.619629 396.511627,459.602142   C398.394684,459.002441 400.370239,458.693298 402.455017,458.487305   C384.043854,469.240997 366.005096,470.044861 347.847412,457.174011   C337.283813,449.686127 325.871918,443.380798 314.731232,436.728394   C310.322601,434.095856 305.371979,433.644135 301.114014,436.783569   C296.600342,440.111572 296.333954,444.773895 297.757446,450.156311   C301.766937,465.316620 309.070221,478.878448 316.912140,492.262054   C317.893463,493.936890 318.512604,496.794037 317.755371,498.353607   C313.986206,506.116821 309.163879,513.396851 305.744690,521.294006   C302.202637,529.474854 298.889069,537.986877 297.237061,546.688477   C295.580658,555.413269 303.860260,560.647827 311.895294,556.742859   C316.503265,554.503418 320.890442,551.809631 325.371338,549.665039   C324.906982,551.014709 324.448273,552.019531 323.712463,553.124390   C323.289429,554.484619 323.143494,555.744873 323.181824,557.270508   C325.300690,558.282166 327.251923,558.988831 329.164948,559.787109   C330.799805,560.469421 332.390839,561.256714 334.000610,561.998779   C334.000000,562.000000 333.997589,562.002441 333.590576,562.061035   C327.789856,563.080566 322.396149,564.041504 316.589172,565.010010   C313.928314,565.485168 311.502869,565.583252 309.495239,566.549438   C308.141663,567.200867 306.307739,569.335510 306.553894,570.357178   C307.249908,573.245789 309.413269,574.545898 312.821625,572.783997   C311.998444,571.587646 311.360413,570.660339 310.592682,569.544556   C313.021057,568.579102 315.009918,567.788330 317.306519,566.963379   C321.737915,566.608765 325.861603,566.288391 330.068634,566.075439   C330.151978,566.182800 330.318695,566.397583 330.318695,566.397583   C325.853546,568.873352 321.563568,571.759949 316.892059,573.751831   C299.238739,581.279114 279.273590,567.772644 278.900879,548.458801   C278.692230,537.647339 282.531097,527.972168 286.680786,518.397827   C289.519104,511.849121 292.848022,505.490875 296.320679,499.249512   C297.870544,496.463928 298.139404,494.450012 296.342194,491.590668   C288.779724,479.558685 282.742706,466.836029 279.754639,452.803802   C277.323029,441.384949 280.659760,431.636292 288.870026,423.876495   C296.632446,416.539856 306.468262,414.372162 316.146271,418.797760   C327.437683,423.961151 338.052643,430.616486 348.901154,436.730865   C355.129303,440.241089 361.238678,443.962158 367.678040,447.778076  M292.624023,558.823792   C291.789398,560.599854 290.954742,562.375916 289.841125,564.745667   C293.490784,563.901001 296.736877,563.149780 300.729950,562.225647   C298.404907,558.011108 296.547791,554.644714 294.413422,550.775757   C292.695648,552.398926 291.554993,553.476746 290.390167,554.577332   C291.200439,555.970093 291.852142,557.090393 292.624023,558.823792  M298.559631,567.439148   C297.409729,568.118225 296.259827,568.797302 295.109924,569.476379   C295.148834,569.947327 295.187744,570.418213 295.226624,570.889099   C297.755646,571.752563 300.284637,572.616028 302.813660,573.479492   C303.078766,573.030457 303.343842,572.581360 303.608917,572.132324   C302.124207,570.559692 300.639465,568.987000 298.559631,567.439148  M307.704224,560.746948   C307.347534,561.179382 306.990845,561.611755 306.634186,562.044189   C307.217133,562.125671 307.800049,562.207153 308.382965,562.288635   C308.289429,561.787659 308.195892,561.286621 307.704224,560.746948  M286.470520,560.953369   C286.263336,561.043457 286.050049,561.123413 285.858429,561.239258   C285.839172,561.250916 285.951111,561.479553 286.002136,561.607544   C286.181000,561.453979 286.359863,561.300415 286.470520,560.953369  M318.939606,558.013000   C318.939606,558.013000 318.945557,557.955383 318.939606,558.013000  M316.485779,556.482056   C316.485779,556.482056 316.491943,556.514160 316.485779,556.482056  z"
   id="path4" />
<path
   fill="#33BBA2"
   opacity="1.000000"
   stroke="none"
   d=" M401.011993,535.022339   C398.807098,535.645691 396.602203,536.269043 393.554230,537.130737   C394.168488,535.458496 394.496063,534.566711 395.359161,532.217224   C389.975250,533.644897 385.435303,534.848877 380.895325,536.052795   C380.887299,536.599548 380.879242,537.146362 380.871216,537.693176   C385.115784,538.538269 390.449677,536.990173 392.917664,542.922058   C386.855499,542.375061 381.083405,541.854187 374.135834,541.227295   C375.898712,543.413879 377.419189,544.957153 378.532196,546.752930   C380.725403,550.291748 382.710358,553.960815 384.737701,557.600403   C385.127777,558.300659 385.166229,559.665161 385.621613,559.789368   C391.166687,561.301697 389.464050,565.821838 389.812500,569.867798   C385.328094,563.535400 380.786499,556.856506 376.336975,550.116821   C371.467712,542.741272 371.504822,542.716797 363.538361,545.728577   C364.784851,543.925293 366.258392,542.375916 367.731903,540.826538   C367.423126,540.331726 367.114349,539.836914 366.805573,539.342102   C365.103088,540.207397 363.126526,540.799316 361.844574,542.084167   C361.386108,542.543640 362.607178,544.678772 363.061676,546.049133   C356.291473,550.346558 349.521240,554.643921 342.374390,558.969604   C341.997742,558.997864 341.959503,558.953308 342.132996,558.667419   C345.496613,555.152710 349.385468,552.334839 349.393890,546.987915   C351.524780,545.990356 353.944519,545.432007 354.867920,543.944641   C357.624847,539.504089 356.020905,537.295410 349.182190,534.718018   C351.250946,533.259766 353.113251,532.058716 355.232239,530.838501   C355.695526,530.552368 355.902130,530.285461 356.068542,530.021240   C356.028351,530.023865 356.033844,530.104309 356.399567,530.038696   C367.476562,523.931641 378.378326,522.900330 389.243286,528.789307   C388.294678,529.173096 387.643677,529.494385 386.992676,529.815735   C387.117706,530.014221 387.242737,530.212708 387.367767,530.411194   C388.104126,529.864380 388.840485,529.317566 389.874756,528.794556   C390.758759,528.935181 391.344849,529.051880 391.945068,529.116028   C391.959167,529.063477 391.854095,529.035339 391.978607,529.239075   C392.345856,529.677002 392.635803,529.790283 393.155975,529.898865   C393.339020,530.015015 393.765869,530.091309 394.003937,530.339050   C396.586914,531.939636 398.931854,533.292419 401.210083,534.739136   C401.143433,534.833069 401.011993,535.022278 401.011993,535.022339  M370.949463,533.181213   C370.070892,532.174866 368.610229,530.186340 368.401520,530.309998   C365.455566,532.056091 362.679749,534.089294 359.862701,536.052856   C360.113617,536.562805 360.364563,537.072754 360.615479,537.582703   C363.947784,536.290588 367.280060,534.998535 370.949463,533.181213  z"
   id="path5" />
<path
   fill="#33BBA2"
   opacity="1.000000"
   stroke="none"
   d=" M606.617432,293.088837   C602.359070,292.976044 597.521606,293.519012 593.180359,292.298004   C578.058838,288.045166 562.664490,287.580414 547.186218,288.126434   C542.956665,288.275604 538.778625,289.745026 534.564453,290.542480   C532.811829,290.874176 531.032471,291.148926 529.254456,291.241852   C526.794739,291.370453 524.274292,290.991699 521.869263,291.381622   C516.184998,292.303284 510.550079,293.533356 504.904083,294.682465   C503.933014,294.880096 502.800690,295.051971 502.095581,295.650940   C499.660706,297.719421 497.707336,300.926544 494.946045,301.867676   C492.503815,302.700012 489.512146,300.179199 486.741547,303.582245   C485.143768,305.544739 481.415619,305.772858 478.323181,306.890808   C478.000000,307.000000 478.002228,307.002228 477.844299,306.774658   C477.148895,306.055695 476.611389,305.564301 475.948486,304.922729   C475.823090,304.772491 475.572205,304.472107 475.572205,304.472107   C489.930176,297.217682 504.918915,291.930389 520.953674,289.887543   C521.421448,289.827942 521.857056,289.516479 523.036621,289.227173   C524.216248,289.033539 524.667053,288.935150 525.117798,288.836792   C525.473755,288.762817 525.829712,288.688812 526.756226,288.609467   C527.903503,288.436462 528.480164,288.268799 529.056824,288.101135   C529.056824,288.101135 529.538086,288.030945 530.021790,288.076111   C530.979858,288.018433 531.454285,287.915588 531.928650,287.812744   C533.385864,287.611542 534.843018,287.410370 537.086304,287.234131   C538.565247,287.169617 539.258118,287.080170 539.951050,286.990753   C544.642944,286.731415 549.334778,286.472046 554.680298,286.319397   C555.921326,286.363892 556.508667,286.301666 557.096069,286.239441   C560.751160,286.398315 564.406189,286.557190 568.869751,286.873138   C571.062073,287.054993 572.445923,287.079773 573.829712,287.104553   C575.286987,287.261810 576.744263,287.419128 578.925415,287.770691   C580.419861,287.977966 581.190369,287.990967 581.960938,288.003937   C590.062561,289.647888 598.164185,291.291870 606.617432,293.088837  z"
   id="path6" />
<path
   fill="#40B3A3"
   opacity="1.000000"
   stroke="none"
   d=" M740.366882,512.802795   C740.879578,505.112762 741.101501,497.082733 742.611511,489.302704   C745.732483,473.223816 743.059692,457.494446 740.761108,441.717377   C739.687134,434.346375 738.082642,427.052673 736.811279,419.408997   C739.277832,431.381592 742.032532,443.612152 743.883484,455.977997   C745.002502,463.453339 745.442261,471.190887 744.897522,478.717255   C744.077576,490.046387 742.128418,501.293823 740.366882,512.802795  z"
   id="path7" />
<path
   fill="#33BBA2"
   opacity="1.000000"
   stroke="none"
   d=" M391.696686,384.189636   C391.642883,385.587219 391.424133,387.230682 391.015472,388.825439   C390.102295,392.388977 389.094482,395.928253 387.871704,400.405609   C382.821228,400.896301 382.115295,406.870087 380.595184,411.439056   C377.189178,421.676392 374.672882,432.207886 371.689545,442.589539   C371.202179,444.285614 370.180481,445.828156 369.131226,447.645782   C372.043701,431.524323 376.306091,415.516449 383.340607,400.376495   C385.853638,394.967834 388.733276,389.729492 391.696686,384.189636  z"
   id="path8" />
<path
   fill="#33BBA2"
   opacity="1.000000"
   stroke="none"
   d=" M710.423340,366.044647   C709.128174,365.641174 707.288147,365.291748 706.299744,364.183105   C699.470947,356.523071 692.775879,348.741730 686.153320,340.901825   C685.023132,339.563873 684.446960,337.757965 683.583435,335.796631   C692.458862,345.532501 701.365784,355.639954 710.423340,366.044647  z"
   id="path9" />
<path
   fill="#33BBA2"
   opacity="1.000000"
   stroke="none"
   d=" M645.802246,308.690887   C643.351807,308.209778 640.615234,307.630615 637.999390,306.709015   C632.247742,304.682617 626.477905,302.669159 620.871826,300.283142   C617.603333,298.892059 614.636780,296.791626 611.267822,294.757996   C622.524475,299.149628 634.047668,303.793579 645.802246,308.690887  z"
   id="path10" />
<path
   fill="#33BBA2"
   opacity="1.000000"
   stroke="none"
   d=" M459.281860,313.648926   C458.468201,315.029236 457.537445,316.769135 456.152832,317.997345   C452.253998,321.455719 448.168488,324.703735 443.420563,328.645813   C443.191101,328.586121 441.775696,328.217834 440.022186,327.745728   C446.108582,323.019531 452.533081,318.397186 459.281860,313.648926  z"
   id="path11" />
<path
   fill="#33BBA2"
   opacity="1.000000"
   stroke="none"
   d=" M400.949677,585.429382   C408.361877,587.510254 412.611328,592.683960 413.838745,600.806885   C409.611145,596.026672 405.339386,590.888245 400.949677,585.429382  z"
   id="path12" />
<path
   fill="#33BBA2"
   opacity="1.000000"
   stroke="none"
   d=" M417.680420,348.177734   C416.885193,351.897583 415.798279,355.770630 414.658325,359.832642   C412.726288,359.832642 410.639832,359.832642 408.220825,359.871765   C411.055023,356.050903 414.221863,352.190948 417.680420,348.177734  z"
   id="path13" />
<path
   fill="#33BBA2"
   opacity="1.000000"
   stroke="none"
   d=" M682.274658,334.365326   C675.887634,331.367645 668.933899,328.591888 665.157227,321.198029   C670.763611,325.253723 676.427917,329.667511 682.274658,334.365326  z"
   id="path14" />
<path
   fill="#33BBA2"
   opacity="1.000000"
   stroke="none"
   d=" M664.982422,320.609680   C658.039978,318.501160 651.039490,315.906006 646.196045,309.220764   C652.295288,312.737701 658.549316,316.530212 664.982422,320.609680  z"
   id="path15" />
<path
   fill="#33BBA2"
   opacity="1.000000"
   stroke="none"
   d=" M406.723938,361.224426   C408.510406,364.780548 407.608337,367.520844 403.938965,369.543976   C401.998322,370.613953 400.412201,372.326904 398.355835,373.880676   C400.848267,369.813049 403.650909,365.614319 406.723938,361.224426  z"
   id="path16" />
<path
   fill="#33BBA2"
   opacity="1.000000"
   stroke="none"
   d=" M477.999390,306.999390   C473.797455,308.214600 469.596130,309.430420 464.984161,310.595947   C468.014526,308.595306 471.455505,306.645020 475.234344,304.583435   C475.572205,304.472107 475.823090,304.772491 476.102356,305.148315   C476.921814,306.016815 477.462036,306.509521 478.002228,307.002228   C478.002228,307.002228 478.000000,307.000000 477.999390,306.999390  z"
   id="path17" />
<path
   fill="#33BBA2"
   opacity="1.000000"
   stroke="none"
   d=" M413.960999,601.406189   C418.462738,603.679932 423.646729,605.776306 423.932373,612.692749   C420.660980,609.297424 417.381317,605.507324 413.960999,601.406189  z"
   id="path18" />
<path
   fill="#40B3A3"
   opacity="1.000000"
   stroke="none"
   d=" M736.099365,416.500793   C734.361755,412.439148 732.617126,408.049835 730.936890,403.367920   C732.698303,407.441284 734.395325,411.807190 736.099365,416.500793  z"
   id="path19" />
<path
   fill="#33BBA2"
   opacity="1.000000"
   stroke="none"
   d=" M391.067566,572.345093   C395.434845,572.042419 396.893402,574.571472 396.438141,579.069946   C394.643494,577.216492 392.905334,574.942383 391.067566,572.345093  z"
   id="path20" />
<path
   fill="#33BBA2"
   opacity="1.000000"
   stroke="none"
   d=" M436.607300,329.995056   C436.120209,333.837555 433.764099,336.226501 429.380859,336.965149   C431.443573,334.711365 433.870209,332.418152 436.607300,329.995056  z"
   id="path21" />
<path
   fill="#33BBA2"
   opacity="1.000000"
   stroke="none"
   d=" M396.639771,376.064209   C396.992554,379.306793 396.186981,382.264282 392.283630,383.823761   C393.429657,381.386902 394.900421,378.827026 396.639771,376.064209  z"
   id="path22" />
<path
   fill="#33BBA2"
   opacity="1.000000"
   stroke="none"
   d=" M428.711792,337.158203   C427.548767,338.613983 426.093506,340.210297 424.291260,341.871338   C425.436005,340.390259 426.927795,338.844482 428.711792,337.158203  z"
   id="path23" />
<path
   fill="#33BBA2"
   opacity="1.000000"
   stroke="none"
   d=" M424.928009,614.404907   C426.153412,615.516724 427.493225,616.938782 428.902527,618.704102   C427.662140,617.603271 426.352295,616.159241 424.928009,614.404907  z"
   id="path24" />
<path
   fill="#33BBA2"
   opacity="1.000000"
   stroke="none"
   d=" M464.453033,310.514893   C463.290497,311.469299 461.790405,312.523560 459.922424,313.625732   C461.074799,312.653992 462.595123,311.634369 464.453033,310.514893  z"
   id="path25" />
<path
   fill="#33BBA2"
   opacity="1.000000"
   stroke="none"
   d=" M337.215515,562.252380   C335.761841,563.191040 334.308167,564.129639 332.470734,565.078796   C332.087006,565.089355 331.964142,564.954163 332.131500,564.706177   C332.865082,563.639648 333.431335,562.821045 333.997559,562.002441   C333.997589,562.002441 334.000000,562.000000 334.372803,561.991821   C335.490631,561.969849 336.235657,561.956055 337.039185,562.019897   C337.097656,562.097595 337.215515,562.252380 337.215515,562.252380  z"
   id="path26" />
<path
   fill="#33BBA2"
   opacity="1.000000"
   stroke="none"
   d=" M423.658997,342.078735   C423.150269,342.879333 422.365112,343.814392 421.278656,344.857727   C421.779114,344.048401 422.580872,343.130829 423.658997,342.078735  z"
   id="path27" />
<path
   fill="#33BBA2"
   opacity="1.000000"
   stroke="none"
   d=" M396.554138,579.779663   C397.157990,580.281189 397.921478,581.074646 398.777466,582.201660   C398.151245,581.713928 397.432526,580.892822 396.554138,579.779663  z"
   id="path28" />
<path
   fill="#297B76"
   opacity="1.000000"
   stroke="none"
   d=" M573.538574,286.997070   C572.445923,287.079773 571.062073,287.054993 569.277100,286.913879   C570.333008,286.828247 571.790222,286.858917 573.538574,286.997070  z"
   id="path29" />
<path
   fill="#33BBA2"
   opacity="1.000000"
   stroke="none"
   d=" M712.225220,368.541168   C711.789062,368.248871 711.248962,367.671356 710.538025,366.842285   C710.951904,367.145782 711.536682,367.700867 712.225220,368.541168  z"
   id="path30" />
<path
   fill="#33BBA2"
   opacity="1.000000"
   stroke="none"
   d=" M419.703430,346.108673   C419.471954,346.545471 418.978821,347.097168 418.256836,347.807648   C418.499268,347.385468 418.970520,346.804535 419.703430,346.108673  z"
   id="path31" />
<path
   fill="#297B76"
   opacity="1.000000"
   stroke="none"
   d=" M539.726257,286.912109   C539.258118,287.080170 538.565247,287.169617 537.526001,287.194336   C537.953613,287.030853 538.727539,286.932129 539.726257,286.912109  z"
   id="path32" />
<path
   fill="#297B76"
   opacity="1.000000"
   stroke="none"
   d=" M581.721436,287.898499   C581.190369,287.990967 580.419861,287.977966 579.284912,287.842163   C579.774292,287.743927 580.628113,287.768494 581.721436,287.898499  z"
   id="path33" />
<path
   fill="#297B76"
   opacity="1.000000"
   stroke="none"
   d=" M528.753967,288.058777   C528.480164,288.268799 527.903503,288.436462 527.025146,288.564514   C527.299377,288.355408 527.875244,288.185913 528.753967,288.058777  z"
   id="path34" />
<path
   fill="#33BBA2"
   opacity="1.000000"
   stroke="none"
   d=" M389.920288,570.278076   C390.193420,570.484253 390.461456,570.996826 390.856018,571.774231   C390.626801,571.554199 390.271027,571.069397 389.920288,570.278076  z"
   id="path35" />
<path
   fill="#33BBA2"
   opacity="1.000000"
   stroke="none"
   d=" M397.779633,374.237000   C397.743927,374.558075 397.471405,375.059540 397.049683,375.804260   C397.114563,375.504150 397.328674,374.960815 397.779633,374.237000  z"
   id="path36" />
<path
   fill="#33BBA2"
   opacity="1.000000"
   stroke="none"
   d=" M332.148529,565.156860   C331.762970,565.564697 331.315918,565.904968 330.593750,566.321411   C330.318695,566.397583 330.151978,566.182800 330.307617,565.932983   C330.963593,565.440125 331.463867,565.197144 331.964142,564.954163   C331.964142,564.954163 332.087006,565.089355 332.148529,565.156860  z"
   id="path37" />
<path
   fill="#33BBA2"
   opacity="1.000000"
   stroke="none"
   d=" M611.124878,294.569458   C610.748718,294.614075 610.183899,294.393555 609.347046,294.043884   C609.695374,294.044617 610.315796,294.174500 611.124878,294.569458  z"
   id="path38" />
<path
   fill="#33BBA2"
   opacity="1.000000"
   stroke="none"
   d=" M339.150787,561.140381   C338.692352,561.468689 338.233948,561.796997 337.495514,562.188843   C337.215515,562.252380 337.097656,562.097595 337.277679,561.876831   C337.963501,561.424561 338.469330,561.193115 339.018616,561.006775   C339.062103,561.051880 339.150787,561.140381 339.150787,561.140381  z"
   id="path39" />
<path
   fill="#297B76"
   opacity="1.000000"
   stroke="none"
   d=" M531.690247,287.756653   C531.454285,287.915588 530.979858,288.018433 530.264648,288.063416   C530.499817,287.903900 530.975830,287.802216 531.690247,287.756653  z"
   id="path40" />
<path
   fill="#33BBA2"
   opacity="1.000000"
   stroke="none"
   d=" M438.677704,328.780273   C438.462860,329.132721 437.920959,329.398956 437.112488,329.814636   C437.347504,329.540680 437.849060,329.117371 438.677704,328.780273  z"
   id="path41" />
<path
   fill="#297B76"
   opacity="1.000000"
   stroke="none"
   d=" M524.913574,288.777710   C524.667053,288.935150 524.216248,289.033539 523.419556,289.098572   C523.618835,288.949738 524.164062,288.834167 524.913574,288.777710  z"
   id="path42" />
<path
   fill="#33BBA2"
   opacity="1.000000"
   stroke="none"
   d=" M342.016785,559.020142   C341.578094,559.362183 341.120361,559.681824 340.349731,560.021118   C340.036865,560.040710 340.008545,560.011902 340.239746,559.857666   C340.967163,559.453430 341.463348,559.203369 341.959503,558.953308   C341.959503,558.953308 341.997742,558.997864 342.016785,559.020142  z"
   id="path43" />
<path
   fill="#297B76"
   opacity="1.000000"
   stroke="none"
   d=" M556.736572,286.162231   C556.508667,286.301666 555.921326,286.363892 555.127930,286.329956   C555.406921,286.184174 555.892029,286.134583 556.736572,286.162231  z"
   id="path44" />
<path
   fill="#33BBA2"
   opacity="1.000000"
   stroke="none"
   d=" M340.050507,560.055969   C339.993317,560.404663 339.839874,560.694336 339.377319,561.040283   C339.150787,561.140381 339.062103,561.051880 339.184082,560.841003   C339.532013,560.414734 339.766205,560.208679 340.008545,560.011902   C340.008545,560.011902 340.036865,560.040710 340.050507,560.055969  z"
   id="path45" />
<path
   fill="#33BBA2"
   opacity="1.000000"
   stroke="none"
   d=" M424.010498,613.244019   C424.158325,613.227417 424.403473,613.471863 424.831726,613.898804   C424.712433,613.889221 424.410126,613.697083 424.010498,613.244019  z"
   id="path46" />
<path
   fill="#33BBA2"
   opacity="1.000000"
   stroke="none"
   d=" M683.155945,335.637207   C682.899475,335.718750 682.653076,335.472229 682.210510,335.053009   C682.398254,335.023254 682.782104,335.166199 683.155945,335.637207  z"
   id="path47" />
<path
   fill="#33BBA2"
   opacity="1.000000"
   stroke="none"
   d=" M439.681763,327.905334   C439.740082,328.125244 439.481812,328.355103 439.041962,328.772186   C439.028595,328.611359 439.196869,328.263336 439.681763,327.905334  z"
   id="path48" />
<path
   fill="#33BBA2"
   opacity="1.000000"
   stroke="none"
   d=" M400.039490,584.272034   C400.190765,584.257019 400.429474,584.501648 400.839661,584.936523   C400.716370,584.928406 400.421631,584.730042 400.039490,584.272034  z"
   id="path49" />
<path
   fill="#33BBA2"
   opacity="1.000000"
   stroke="none"
   d=" M713.003052,369.676971   C712.843323,369.713074 712.603699,369.481140 712.180420,369.079651   C712.305542,369.076416 712.614380,369.242676 713.003052,369.676971  z"
   id="path50" />
<path
   fill="#12243A"
   opacity="1.000000"
   stroke="none"
   d=" M354.975525,530.857666   C353.113251,532.058716 351.250946,533.259766 349.194000,534.729553   C348.999359,534.998291 348.975250,534.975891 348.616974,534.994263   C340.651215,539.775513 333.043732,544.538391 325.414032,549.283447   C325.391815,549.265686 325.376984,549.320312 325.376984,549.320312   C320.890442,551.809631 316.503265,554.503418 311.895294,556.742859   C303.860260,560.647827 295.580658,555.413269 297.237061,546.688477   C298.889069,537.986877 302.202637,529.474854 305.744690,521.294006   C309.163879,513.396851 313.986206,506.116821 317.755371,498.353607   C318.512604,496.794037 317.893463,493.936890 316.912140,492.262054   C309.070221,478.878448 301.766937,465.316620 297.757446,450.156311   C296.333954,444.773895 296.600342,440.111572 301.114014,436.783569   C305.371979,433.644135 310.322601,434.095856 314.731232,436.728394   C325.871918,443.380798 337.283813,449.686127 347.847412,457.174011   C366.005096,470.044861 384.043854,469.240997 402.852356,458.487671   C403.098175,458.251801 403.063019,458.190521 403.443970,458.165710   C417.255737,451.789764 430.686523,445.438660 444.117310,439.087524   C444.117279,439.087524 444.068909,439.050934 444.428711,439.037170   C450.949799,436.398804 457.198242,433.887115 460.178833,427.142303   C460.178833,427.142303 460.111145,427.125977 460.389465,426.891510   C465.096588,417.572845 462.763702,409.459259 457.102966,401.823364   C454.775879,398.598267 452.338654,395.445770 450.152496,392.127808   C447.941040,388.771576 445.694824,385.213531 447.825348,381.010468   C449.998230,376.723846 453.987793,376.161224 458.396149,375.916260   C474.632416,375.013947 489.000031,381.156921 503.170197,387.708466   C518.987244,395.021454 533.710938,404.272491 545.499573,417.240326   C550.589844,422.839752 556.875000,422.037231 562.784912,422.777557   C586.831055,425.789764 609.811829,432.406433 631.059875,443.876434   C643.876038,450.794800 655.958130,459.220367 667.781738,467.781158   C676.462341,474.066345 676.309570,478.553406 668.645752,486.045013   C663.532166,491.043640 658.016235,495.628662 652.776245,500.501892   C651.909180,501.308258 650.770630,503.171692 651.086914,503.630798   C651.828613,504.707489 653.322754,505.740723 654.607605,505.874115   C657.738525,506.199127 660.924316,506.053436 664.086609,506.003815   C668.082336,505.941101 671.332336,507.355225 673.188110,510.965332   C675.122742,514.728760 674.086243,518.632812 671.218140,521.044067   C661.454285,529.252747 651.521057,537.295471 641.235107,544.831848   C636.596436,548.230530 630.972717,550.284729 625.034241,553.004883   C619.611511,554.631042 615.010498,556.418884 610.276184,557.723267   C602.027893,559.995911 593.696838,561.968262 585.401550,564.070618   C579.842102,565.479614 574.338623,567.188782 568.711487,568.231018   C562.378784,569.403870 555.894897,569.752319 549.552307,570.882996   C544.261597,571.825989 540.639526,575.000244 539.474304,580.505249   C539.474304,580.505249 539.426270,580.435669 539.098022,580.498657   C532.969055,584.026672 526.102722,586.148315 523.027344,593.049072   C522.589905,593.366760 522.152405,593.684387 521.067810,594.102295   C512.990540,596.848816 505.548065,599.461792 498.155579,602.209351   C497.606812,602.413269 497.417450,603.584351 497.061005,604.305786   C496.602386,604.466858 496.143768,604.627869 494.930328,604.667969   C487.166443,604.294373 480.165253,604.018738 475.113739,598.035522   C475.078278,597.580933 475.042786,597.126282 475.356842,596.125000   C476.388580,593.516113 477.070770,591.453796 477.752930,589.391479   C477.752899,589.391479 477.802948,589.120544 478.205261,588.894897   C481.894653,583.436218 485.536835,578.386230 488.358887,572.913330   C490.707306,568.358948 489.230042,565.901978 484.208801,564.548889   C480.060699,563.431213 475.838013,562.592041 471.654114,561.605225   C465.395569,560.129089 459.142029,558.631775 452.911285,557.120361   C452.936188,557.097229 452.977295,557.151306 452.717957,556.880859   C450.755463,556.118469 449.052338,555.626587 447.113892,555.135376   C446.562195,555.091431 446.270325,554.981689 445.770508,554.569702   C444.280334,553.904663 443.022675,553.476562 441.569580,553.036377   C441.374207,553.024353 441.030762,552.836304 440.836731,552.553955   C437.882568,551.229431 435.122406,550.187256 432.362244,549.145020   C432.362244,549.145081 432.181122,549.186584 431.883240,548.868530   C430.320618,548.085388 429.055908,547.620178 427.802551,547.152588   C427.813904,547.150208 427.790039,547.178650 427.619141,546.896301   C420.786804,543.499512 414.125336,540.385010 407.339661,537.253906   C407.215454,537.237244 407.039551,537.058655 406.801941,536.896606   C406.048309,536.488525 405.532318,536.242554 405.007874,536.003174   C404.999420,536.009766 405.000763,535.989624 404.825439,535.706787   C401.022064,533.646423 397.393951,531.868896 393.765869,530.091309   C393.765869,530.091309 393.339020,530.015015 392.984741,529.752319   C392.389496,529.307739 392.130707,529.156311 391.854095,529.035339   C391.854095,529.035339 391.959167,529.063477 391.804321,528.792480   C384.689545,520.467224 363.194244,521.422485 356.033844,530.104309   C356.033844,530.104309 356.028351,530.023865 355.866364,530.143311   C355.445251,530.441162 355.202301,530.639465 354.975525,530.857666  M608.782532,488.638580   C609.114197,488.858307 609.445923,489.078003 610.327515,489.808044   C611.556885,489.969482 612.786316,490.130920 614.504761,490.849945   C626.054993,489.993683 631.589539,482.584808 628.176331,472.209045   C628.176331,472.209045 627.981628,472.001099 627.867798,471.318909   C624.943298,463.924408 614.512329,461.625671 607.566772,466.182404   C605.929016,468.441193 604.291260,470.699951 602.155884,473.570892   C601.281494,479.818909 602.911743,485.018768 608.921936,488.513702   C608.921936,488.513702 608.848511,488.031830 608.782532,488.638580  z"
   id="path51" />
<path
   fill="#04363C"
   opacity="1.000000"
   stroke="none"
   d=" M539.762573,580.332703   C540.639526,575.000244 544.261597,571.825989 549.552307,570.882996   C555.894897,569.752319 562.378784,569.403870 568.711487,568.231018   C574.338623,567.188782 579.842102,565.479614 585.401550,564.070618   C593.696838,561.968262 602.027893,559.995911 610.276184,557.723267   C615.010498,556.418884 619.611511,554.631042 624.682617,553.071289   C609.553650,561.314026 592.770813,565.767944 575.632629,568.907227   C567.406677,570.414062 558.996094,570.890198 550.704590,572.080139   C548.927734,572.335144 547.095215,573.397827 545.659851,574.550903   C543.610596,576.197083 541.903809,578.269653 539.762573,580.332703  z"
   id="path52" />
<path
   fill="#33BBA2"
   opacity="1.000000"
   stroke="none"
   d=" M443.734192,439.020752   C430.686523,445.438660 417.255737,451.789764 403.456818,458.196289   C404.188385,457.266754 405.161530,456.066345 406.409302,455.333405   C412.580780,451.707825 418.824890,448.205780 425.472443,444.415619   C423.926270,443.146973 422.259399,441.779236 420.592529,440.411499   C420.676056,440.125122 420.759552,439.838745 420.843079,439.552368   C421.995728,439.681976 423.258148,439.552368 424.282043,439.985992   C428.727356,441.868591 432.841675,442.944489 437.166382,439.218353   C438.393188,438.161316 441.244690,438.990051 443.734192,439.020752  z"
   id="path53" />
<path
   fill="#04363C"
   opacity="1.000000"
   stroke="none"
   d=" M452.886383,557.143494   C459.142029,558.631775 465.395569,560.129089 471.654114,561.605225   C475.838013,562.592041 480.060699,563.431213 484.208801,564.548889   C489.230042,565.901978 490.707306,568.358948 488.358887,572.913330   C485.536835,578.386230 481.894653,583.436218 478.303436,588.798218   C479.989746,585.287842 481.980164,581.648438 484.315186,577.438721   C485.133331,575.997803 485.627258,575.137634 486.077209,574.255005   C489.214539,568.101257 488.679565,567.045471 481.849701,565.911072   C481.199677,565.803040 480.538574,565.761536 479.882629,565.689148   C479.882629,565.689148 479.773560,565.599976 479.381775,565.447632   C472.651917,563.563538 466.313812,561.831787 459.975708,560.099976   C459.726410,559.896057 459.441162,559.782166 458.614960,559.566284   C456.368774,558.630615 454.627563,557.887024 452.886383,557.143494  z"
   id="path54" />
<path
   fill="#33BBA2"
   opacity="1.000000"
   stroke="none"
   d=" M459.880737,427.026367   C457.198242,433.887115 450.949799,436.398804 444.423950,439.067139   C446.264038,435.808929 448.352386,432.417358 450.771057,429.280518   C451.256256,428.651245 452.998016,428.990875 454.509460,428.851562   C454.794769,427.766388 455.162506,426.367706 455.625061,424.608337   C457.119202,425.477478 458.350952,426.193970 459.880737,427.026367  z"
   id="path55" />
<path
   fill="#33BBA2"
   opacity="1.000000"
   stroke="none"
   d=" M457.113190,402.216248   C462.763702,409.459259 465.096588,417.572845 460.408051,426.920929   C459.140045,418.992920 458.131714,410.800995 457.113190,402.216248  z"
   id="path56" />
<path
   fill="#04363C"
   opacity="1.000000"
   stroke="none"
   d=" M497.415100,604.297485   C497.417450,603.584351 497.606812,602.413269 498.155579,602.209351   C505.548065,599.461792 512.990540,596.848816 520.802368,594.168091   C513.379089,597.518860 505.574127,600.904053 497.415100,604.297485  z"
   id="path57" />
<path
   fill="#33BBA2"
   opacity="1.000000"
   stroke="none"
   d=" M480.013367,566.045349   C480.538574,565.761536 481.199677,565.803040 481.849701,565.911072   C488.679565,567.045471 489.214539,568.101257 486.077209,574.255005   C485.627258,575.137634 485.133331,575.997803 484.388000,577.111023   C482.792175,573.703003 481.468140,570.052246 480.013367,566.045349  z"
   id="path58" />
<path
   fill="#04363C"
   opacity="1.000000"
   stroke="none"
   d=" M475.090149,598.391968   C480.165253,604.018738 487.166443,604.294373 494.560913,604.663879   C490.108521,604.794556 485.157349,605.416504 480.484467,604.545410   C478.391052,604.155212 476.855347,600.772949 475.090149,598.391968  z"
   id="path59" />
<path
   fill="#04363C"
   opacity="1.000000"
   stroke="none"
   d=" M523.362000,592.960693   C526.102722,586.148315 532.969055,584.026672 539.138794,580.510010   C534.237366,584.596313 528.967041,588.734314 523.362000,592.960693  z"
   id="path60" />
<path
   fill="#04363C"
   opacity="1.000000"
   stroke="none"
   d=" M407.463867,537.270569   C414.125336,540.385010 420.786804,543.499512 427.266968,546.846436   C425.099823,546.314209 423.113983,545.549500 421.128174,544.784790   C421.128174,544.784790 421.069183,544.827209 420.901306,544.580444   C419.518616,543.803101 418.303802,543.272522 417.089020,542.742004   C416.610748,542.446045 416.132446,542.150146 415.252686,541.650757   C414.851196,541.447266 414.484375,541.364197 414.484375,541.364197   C414.484375,541.364197 414.027893,541.474365 414.070007,541.393433   C413.739044,541.179993 413.365967,541.047363 412.992889,540.914795   C412.992889,540.914795 413.156372,540.982971 412.957947,540.652710   C410.994324,539.305176 409.229095,538.287842 407.463867,537.270569  z"
   id="path61" />
<path
   fill="#33BBA2"
   opacity="1.000000"
   stroke="none"
   d=" M452.911285,557.120361   C454.627563,557.887024 456.368774,558.630615 458.387268,559.616699   C452.289276,561.002258 446.659576,559.774292 442.142670,554.325562   C442.044464,553.956177 442.175812,553.814636 442.504517,553.856934   C443.889771,554.201782 444.946381,554.504272 446.002991,554.806763   C446.270325,554.981689 446.562195,555.091431 447.401733,555.389160   C449.609039,556.145386 451.293152,556.648315 452.977295,557.151306   C452.977295,557.151306 452.936188,557.097229 452.911285,557.120361  z"
   id="path62" />
<path
   fill="#33BBA2"
   opacity="1.000000"
   stroke="none"
   d=" M460.185120,560.344238   C466.313812,561.831787 472.651917,563.563538 479.337158,565.502136   C472.596771,566.479248 466.059448,565.177124 460.185120,560.344238  z"
   id="path63" />
<path
   fill="#33BBA2"
   opacity="1.000000"
   stroke="none"
   d=" M400.254944,455.287994   C397.938873,454.756287 395.923157,454.199097 393.907410,453.641937   C394.065216,453.065277 394.223053,452.488647 394.380859,451.912018   C396.967468,452.382751 399.554077,452.853485 403.320312,453.538910   C401.724152,454.533936 401.139740,454.898224 400.254944,455.287994  z"
   id="path64" />
<path
   fill="#33BBA2"
   opacity="1.000000"
   stroke="none"
   d=" M421.287384,545.083618   C423.113983,545.549500 425.099823,546.314209 427.437836,547.128784   C427.790039,547.178650 427.813904,547.150208 428.021454,547.389343   C429.170258,548.139526 430.111481,548.650635 431.052734,549.161682   C429.374084,551.570862 427.651489,551.979675 425.582642,549.505127   C424.339203,548.017822 422.834106,546.749329 421.287384,545.083618  z"
   id="path65" />
<path
   fill="#33BBA2"
   opacity="1.000000"
   stroke="none"
   d=" M441.030762,552.836304   C441.030762,552.836304 441.374207,553.024353 441.677856,553.225342   C441.981506,553.426270 442.175812,553.814636 442.175812,553.814636   C442.175812,553.814636 442.044464,553.956177 441.978607,554.028320   C438.909210,554.237915 435.905640,554.375366 432.348389,554.538208   C433.005127,552.979675 433.420135,551.994812 434.334595,550.835083   C436.899597,551.385620 438.965179,552.110962 441.030762,552.836304  z"
   id="path66" />
<path
   fill="#04363C"
   opacity="1.000000"
   stroke="none"
   d=" M440.836731,552.553955   C438.965179,552.110962 436.899597,551.385620 434.472626,550.563110   C433.647400,550.169006 433.183502,549.872070 432.540955,549.360107   C435.122406,550.187256 437.882568,551.229431 440.836731,552.553955  z"
   id="path67" />
<path
   fill="#33BBA2"
   opacity="1.000000"
   stroke="none"
   d=" M407.339661,537.253906   C409.229095,538.287842 410.994324,539.305176 412.992096,540.571045   C410.588043,539.752136 407.951416,538.684753 405.205750,537.252747   C405.096741,536.888184 405.273315,536.717773 405.567078,536.780273   C406.253754,536.914734 406.646667,536.986694 407.039551,537.058655   C407.039551,537.058655 407.215454,537.237244 407.339661,537.253906  z"
   id="path68" />
<path
   fill="#04363C"
   opacity="1.000000"
   stroke="none"
   d=" M477.506653,589.654358   C477.070770,591.453796 476.388580,593.516113 475.427216,595.788879   C475.852142,593.971985 476.556244,591.944641 477.506653,589.654358  z"
   id="path69" />
<path
   fill="#33BBA2"
   opacity="1.000000"
   stroke="none"
   d=" M417.290924,543.012268   C418.303802,543.272522 419.518616,543.803101 420.922546,544.609863   C419.905396,544.351624 418.699127,543.817078 417.290924,543.012268  z"
   id="path70" />
<path
   fill="#04363C"
   opacity="1.000000"
   stroke="none"
   d=" M431.303802,549.136658   C430.111481,548.650635 429.170258,548.139526 428.010071,547.391724   C429.055908,547.620178 430.320618,548.085388 431.820496,548.800049   C431.888733,549.070190 431.721802,549.090942 431.303802,549.136658  z"
   id="path71" />
<path
   fill="#33BBA2"
   opacity="1.000000"
   stroke="none"
   d=" M405.007874,536.972778   C404.421387,536.806396 403.923828,536.555420 403.268494,536.076416   C403.110748,535.848389 403.274689,535.674377 403.562500,535.730164   C404.233826,535.853821 404.617310,535.921692 405.000763,535.989624   C405.000763,535.989624 404.999420,536.009766 405.078430,536.181213   C405.157410,536.352661 405.273315,536.717773 405.273315,536.717773   C405.273315,536.717773 405.096741,536.888184 405.007874,536.972778  z"
   id="path72" />
<path
   fill="#33BBA2"
   opacity="1.000000"
   stroke="none"
   d=" M403.027893,535.934509   C402.456390,535.780823 401.967743,535.541016 401.245544,535.161743   C401.011993,535.022278 401.143433,534.833069 401.490295,534.803467   C402.316315,535.074097 402.795502,535.374207 403.274689,535.674377   C403.274689,535.674377 403.110748,535.848389 403.027893,535.934509  z"
   id="path73" />
<path
   fill="#33BBA2"
   opacity="1.000000"
   stroke="none"
   d=" M413.186768,541.079224   C413.365967,541.047363 413.739044,541.179993 414.125031,541.621704   C413.885498,541.701782 413.633087,541.472656 413.186768,541.079224  z"
   id="path74" />
<path
   fill="#33BBA2"
   opacity="1.000000"
   stroke="none"
   d=" M414.548950,541.431763   C414.484375,541.364197 414.851196,541.447266 414.972473,541.591431   C414.908600,541.706665 414.748535,541.627930 414.548950,541.431763  z"
   id="path75" />
<path
   fill="#2DBC9F"
   opacity="1.000000"
   stroke="none"
   d=" M340.239746,559.857666   C339.766205,560.208679 339.532013,560.414734 339.140594,560.795898   C338.469330,561.193115 337.963501,561.424561 337.219177,561.799194   C336.235657,561.956055 335.490631,561.969849 334.373413,561.990601   C332.390839,561.256714 330.799805,560.469421 329.164948,559.787109   C327.251923,558.988831 325.300690,558.282166 323.294678,556.946228   C323.478699,555.245911 323.734131,554.135193 323.989563,553.024414   C324.448273,552.019531 324.906982,551.014709 325.371338,549.665039   C325.376984,549.320312 325.391815,549.265686 325.764221,549.338013   C329.405945,549.410400 332.675262,549.410400 336.563263,549.410400   C336.809509,549.867676 337.552094,551.246643 337.829590,551.761963   C341.824341,550.059692 345.411530,548.531067 348.999359,547.001221   C349.000000,547.000000 348.998779,547.002441 348.998779,547.002441   C349.385468,552.334839 345.496613,555.152710 342.132996,558.667419   C341.463348,559.203369 340.967163,559.453430 340.239746,559.857666  z"
   id="path76" />
<path
   fill="#2ABDA0"
   opacity="1.000000"
   stroke="none"
   d=" M292.563934,558.517212   C291.852142,557.090393 291.200439,555.970093 290.390167,554.577332   C291.554993,553.476746 292.695648,552.398926 294.413422,550.775757   C296.547791,554.644714 298.404907,558.011108 300.729950,562.225647   C296.736877,563.149780 293.490784,563.901001 289.841125,564.745667   C290.954742,562.375916 291.789398,560.599854 292.563934,558.517212  z"
   id="path77" />
<path
   fill="#2ABDA0"
   opacity="1.000000"
   stroke="none"
   d=" M316.998779,566.997559   C315.009918,567.788330 313.021057,568.579102 310.592682,569.544556   C311.360413,570.660339 311.998444,571.587646 312.821625,572.783997   C309.413269,574.545898 307.249908,573.245789 306.553894,570.357178   C306.307739,569.335510 308.141663,567.200867 309.495239,566.549438   C311.502869,565.583252 313.928314,565.485168 316.588501,565.342529   C317.000336,566.110840 316.999542,566.554199 316.998779,566.997559  z"
   id="path78" />
<path
   fill="#2DBC9F"
   opacity="1.000000"
   stroke="none"
   d=" M317.306488,566.963379   C316.999542,566.554199 317.000336,566.110840 317.001770,565.334961   C322.396149,564.041504 327.789856,563.080566 333.590576,562.061035   C333.431335,562.821045 332.865082,563.639648 332.131500,564.706177   C331.463867,565.197144 330.963593,565.440125 330.224304,565.825562   C325.861603,566.288391 321.737915,566.608765 317.306488,566.963379  z"
   id="path79" />
<path
   fill="#2ABDA0"
   opacity="1.000000"
   stroke="none"
   d=" M298.857178,567.426758   C300.639465,568.987000 302.124207,570.559692 303.608917,572.132324   C303.343842,572.581360 303.078766,573.030457 302.813660,573.479492   C300.284637,572.616028 297.755646,571.752563 295.226624,570.889099   C295.187744,570.418213 295.148834,569.947327 295.109924,569.476379   C296.259827,568.797302 297.409729,568.118225 298.857178,567.426758  z"
   id="path80" />
<path
   fill="#2ABDA0"
   opacity="1.000000"
   stroke="none"
   d=" M307.903259,560.766296   C308.195892,561.286621 308.289429,561.787659 308.382996,562.288635   C307.800049,562.207153 307.217133,562.125671 306.634186,562.044189   C306.990845,561.611755 307.347534,561.179382 307.903259,560.766296  z"
   id="path81" />
<path
   fill="#2ABDA0"
   opacity="1.000000"
   stroke="none"
   d=" M323.712463,553.124390   C323.734131,554.135193 323.478699,555.245911 323.110443,556.680908   C323.143494,555.744873 323.289429,554.484619 323.712463,553.124390  z"
   id="path82" />
<path
   fill="#2ABDA0"
   opacity="1.000000"
   stroke="none"
   d=" M286.504639,561.050171   C286.359863,561.300415 286.181000,561.453979 286.002136,561.607544   C285.951111,561.479553 285.839172,561.250916 285.858429,561.239258   C286.050049,561.123413 286.263336,561.043457 286.504639,561.050171  z"
   id="path83" />
<path
   fill="#2ABDA0"
   opacity="1.000000"
   stroke="none"
   d=" M318.942566,557.984192   C318.945557,557.955383 318.939606,558.013000 318.942566,557.984192  z"
   id="path84" />
<path
   fill="#2ABDA0"
   opacity="1.000000"
   stroke="none"
   d=" M316.488861,556.498108   C316.491943,556.514160 316.485779,556.482056 316.488861,556.498108  z"
   id="path85" />
<path
   fill="#04363C"
   opacity="1.000000"
   stroke="none"
   d=" M356.399567,530.038696   C363.194244,521.422485 384.689545,520.467224 391.790222,528.845093   C391.344849,529.051880 390.758759,528.935181 389.857208,528.789429   C389.541779,528.760437 389.540833,528.726868 389.540833,528.726868   C378.378326,522.900330 367.476562,523.931641 356.399567,530.038696  z"
   id="path86" />
<path
   fill="#2DBDA2"
   opacity="1.000000"
   stroke="none"
   d=" M348.987549,534.986694   C356.020905,537.295410 357.624847,539.504089 354.867920,543.944641   C353.944519,545.432007 351.524780,545.990356 349.393890,546.987915   C348.998779,547.002441 349.000000,547.000000 348.808929,546.773315   C347.674835,545.744385 346.731781,544.942200 345.237335,543.671021   C352.439972,542.798584 349.857300,538.601196 348.975250,534.975891   C348.975250,534.975891 348.999359,534.998291 348.987549,534.986694  z"
   id="path87" />
<path
   fill="#2DBDA2"
   opacity="1.000000"
   stroke="none"
   d=" M370.780914,533.443848   C367.280060,534.998535 363.947784,536.290588 360.615479,537.582703   C360.364563,537.072754 360.113617,536.562805 359.862701,536.052856   C362.679749,534.089294 365.455566,532.056091 368.401520,530.309998   C368.610229,530.186340 370.070892,532.174866 370.780914,533.443848  z"
   id="path88" />
<path
   fill="#2ABDA0"
   opacity="1.000000"
   stroke="none"
   d=" M363.036316,546.031189   C362.607178,544.678772 361.386108,542.543640 361.844574,542.084167   C363.126526,540.799316 365.103088,540.207397 366.805573,539.342102   C367.114349,539.836914 367.423126,540.331726 367.731903,540.826538   C366.258392,542.375916 364.784851,543.925293 363.173584,545.772827   C363.035858,546.070984 363.010925,546.013245 363.036316,546.031189  z"
   id="path89" />
<path
   fill="#04363C"
   opacity="1.000000"
   stroke="none"
   d=" M403.562500,535.730164   C402.795502,535.374207 402.316315,535.074097 401.556946,534.709595   C398.931854,533.292419 396.586914,531.939636 394.003937,530.339050   C397.393951,531.868896 401.022064,533.646423 404.825439,535.706787   C404.617310,535.921692 404.233826,535.853821 403.562500,535.730164  z"
   id="path90" />
<path
   fill="#2DBDA2"
   opacity="1.000000"
   stroke="none"
   d=" M389.559326,528.765564   C388.840485,529.317566 388.104126,529.864380 387.367767,530.411194   C387.242737,530.212708 387.117706,530.014221 386.992676,529.815735   C387.643677,529.494385 388.294678,529.173096 389.243286,528.789307   C389.540833,528.726868 389.541779,528.760437 389.559326,528.765564  z"
   id="path91" />
<path
   fill="#04363C"
   opacity="1.000000"
   stroke="none"
   d=" M391.978607,529.239075   C392.130707,529.156311 392.389496,529.307739 392.801697,529.636108   C392.635803,529.790283 392.345856,529.677002 391.978607,529.239075  z"
   id="path92" />
<path
   fill="#04363C"
   opacity="1.000000"
   stroke="none"
   d=" M355.232239,530.838440   C355.202301,530.639465 355.445251,530.441162 355.906555,530.140625   C355.902130,530.285461 355.695526,530.552368 355.232239,530.838440  z"
   id="path93" />
<path
   fill="#2DBDA2"
   opacity="1.000000"
   stroke="none"
   d=" M477.844299,306.774658   C477.462036,306.509521 476.921814,306.016815 476.227753,305.298523   C476.611389,305.564301 477.148895,306.055695 477.844299,306.774658  z"
   id="path94" />
<path
   fill="#30C0A6"
   opacity="1.000000"
   stroke="none"
   d=" M602.653503,472.958740   C604.291260,470.699951 605.929016,468.441193 608.282471,466.032776   C614.934631,464.452026 620.338379,465.083282 624.813538,469.753265   C625.693420,470.671356 626.916687,471.260345 627.981628,472.001099   C627.981628,472.001099 628.176331,472.209045 628.157227,472.813171   C628.489502,479.754303 626.309937,484.738464 620.384460,487.616943   C618.316345,488.621521 616.141663,489.406860 614.015686,490.292358   C612.786316,490.130920 611.556885,489.969482 609.906128,489.339661   C609.272644,488.591461 609.060547,488.311646 608.848511,488.031860   C608.848511,488.031830 608.921936,488.513702 608.620605,488.194458   C606.430725,482.903046 604.542114,477.930878 602.653503,472.958740  z"
   id="path95" />
<path
   fill="#33BBA2"
   opacity="1.000000"
   stroke="none"
   d=" M348.616974,534.994263   C349.857300,538.601196 352.439972,542.798584 345.237335,543.671021   C346.731781,544.942200 347.674835,545.744385 348.808289,546.774536   C345.411530,548.531067 341.824341,550.059692 337.829590,551.761963   C337.552094,551.246643 336.809509,549.867676 336.563263,549.410400   C332.675262,549.410400 329.405945,549.410400 325.786438,549.355835   C333.043732,544.538391 340.651215,539.775513 348.616974,534.994263  z"
   id="path96" />
<path
   fill="#42AEA0"
   opacity="1.000000"
   stroke="none"
   d=" M614.260254,490.571136   C616.141663,489.406860 618.316345,488.621521 620.384460,487.616943   C626.309937,484.738464 628.489502,479.754303 628.178833,472.953979   C631.589539,482.584808 626.054993,489.993683 614.260254,490.571136  z"
   id="path97" />
<path
   fill="#42AEA0"
   opacity="1.000000"
   stroke="none"
   d=" M627.924683,471.660034   C626.916687,471.260345 625.693420,470.671356 624.813538,469.753265   C620.338379,465.083282 614.934631,464.452026 608.605591,465.894470   C614.512329,461.625671 624.943298,463.924408 627.924683,471.660034  z"
   id="path98" />
<path
   fill="#40B3A3"
   opacity="1.000000"
   stroke="none"
   d=" M602.404663,473.264832   C604.542114,477.930878 606.430725,482.903046 608.379700,488.231262   C602.911743,485.018768 601.281494,479.818909 602.404663,473.264832  z"
   id="path99" />
<path
   fill="#04363C"
   opacity="1.000000"
   stroke="none"
   d=" M452.717957,556.880859   C451.293152,556.648315 449.609039,556.145386 447.637024,555.388550   C449.052338,555.626587 450.755463,556.118469 452.717957,556.880859  z"
   id="path100" />
<path
   fill="#04363C"
   opacity="1.000000"
   stroke="none"
   d=" M442.504517,553.856934   C442.175812,553.814636 441.981506,553.426270 441.873230,553.237366   C443.022675,553.476562 444.280334,553.904663 445.770508,554.569763   C444.946381,554.504272 443.889771,554.201782 442.504517,553.856934  z"
   id="path101" />
<path
   fill="#04363C"
   opacity="1.000000"
   stroke="none"
   d=" M405.567078,536.780273   C405.273315,536.717773 405.157410,536.352661 405.086853,536.174622   C405.532318,536.242554 406.048309,536.488525 406.801941,536.896606   C406.646667,536.986694 406.253754,536.914734 405.567078,536.780273  z"
   id="path102" />
<path
   fill="#40B3A3"
   opacity="1.000000"
   stroke="none"
   d=" M608.815552,488.335205   C609.060547,488.311646 609.272644,488.591461 609.631165,489.084473   C609.445923,489.078003 609.114197,488.858307 608.815552,488.335205  z"
   id="path103" />
</svg>
